<svg xmlns="http://www.w3.org/2000/svg" width="30" height="30">
  <path d="M 12.8125 3.75 C 7.820312 3.75 3.75 7.820312 3.75 12.8125 C 3.75 17.804688 7.820312 21.875 12.8125 21.875 C 14.972656 21.875 16.957031 21.113281 18.519531 19.84375 L 24.648438 25.976562 C 24.886719 26.21875 25.234375 26.320312 25.5625 26.234375 C 25.890625 26.148438 26.148438 25.890625 26.234375 25.5625 C 26.320312 25.234375 26.21875 24.886719 25.976562 24.648438 L 19.84375 18.519531 C 21.113281 16.957031 21.875 14.972656 21.875 12.8125 C 21.875 7.820312 17.804688 3.75 12.8125 3.75 Z M 12.8125 5.625 C 16.792969 5.625 20 8.832031 20 12.8125 C 20 14.75 19.234375 16.503906 17.996094 17.792969 C 17.917969 17.851562 17.851562 17.917969 17.792969 17.996094 C 16.503906 19.234375 14.75 20 12.8125 20 C 8.832031 20 5.625 16.792969 5.625 12.8125 C 5.625 8.832031 8.832031 5.625 12.8125 5.625 Z M 12.8125 5.625" fill="#3498db"/>
</svg>
